<svg xmlns="http://www.w3.org/2000/svg" version="1.1" xmlns:xlink="http://www.w3.org/1999/xlink" xmlns:svgjs="http://svgjs.dev/svgjs" width="2560" height="1440" preserveAspectRatio="none" viewBox="0 0 2560 1440"><g mask="url(&quot;#SvgjsMask1354&quot;)" fill="none"><rect width="2560" height="1440" x="0" y="0" fill="url(&quot;#SvgjsLinearGradient1355&quot;)"></rect><path d="M346.262,1165.106C510.049,1166.789,670.302,1093.05,751.586,950.846C832.324,809.597,822.575,628.912,728.704,496.028C646.145,379.156,489.35,377.937,346.262,377.065C200.868,376.179,38.359,371.731,-44.343,491.316C-136.063,623.941,-125.764,803.159,-44.891,942.664C35.736,1081.745,185.508,1163.455,346.262,1165.106" fill="rgba(28, 83, 142, 0.4)" class="triangle-float3"></path><path d="M2388.608,1226.143C2478.201,1226.88,2565.124,1183.391,2608.05,1104.747C2649.443,1028.911,2631.786,937.369,2586.333,863.895C2543.447,794.57,2470.01,745.671,2388.608,750.022C2313.169,754.054,2263.608,818.67,2224.392,883.241C2182.961,951.458,2140.859,1029.202,2175.332,1101.186C2213.476,1180.835,2300.3,1225.416,2388.608,1226.143" fill="rgba(28, 83, 142, 0.4)" class="triangle-float3"></path><path d="M702.353,1644.025C835.523,1646.573,957.921,1579.91,1031.449,1468.85C1114.4,1343.558,1166.366,1184.427,1093.717,1052.893C1019.318,918.19,855.978,864.097,702.353,873.007C563.644,881.051,447.28,971.261,382.437,1094.144C321.96,1208.752,329.202,1344.653,394.368,1456.662C459.135,1567.986,573.583,1641.561,702.353,1644.025" fill="rgba(28, 83, 142, 0.4)" class="triangle-float1"></path><path d="M2045.9,1833.287C2186.39,1835.39,2340.394,1803.17,2408.103,1680.055C2474.244,1559.792,2412.385,1417.632,2337.894,1302.354C2271.094,1198.978,2168.89,1124.259,2045.9,1119.531C1913.985,1114.459,1782.234,1166.37,1712.242,1278.3C1638.119,1396.838,1629.97,1549.666,1702.005,1669.484C1772.124,1786.116,1909.828,1831.25,2045.9,1833.287" fill="rgba(28, 83, 142, 0.4)" class="triangle-float1"></path><path d="M1932.243,338.19C2028.122,337.088,2123.435,292.52,2166.216,206.708C2205.651,127.606,2162.521,40.73,2118.847,-36.113C2074.421,-114.279,2022.152,-204.716,1932.243,-204.963C1842.106,-205.21,1789.291,-114.989,1743.855,-37.142C1697.869,41.648,1647.841,130.661,1688.765,212.195C1732.701,299.73,1834.306,339.316,1932.243,338.19" fill="rgba(28, 83, 142, 0.4)" class="triangle-float2"></path><path d="M1872.022,1452.745C2002.64,1455.705,2138.66,1417.277,2206.94,1305.887C2277.875,1190.166,2263.088,1043.469,2194.809,926.161C2126.97,809.609,2006.875,729.406,1872.022,730.478C1738.872,731.536,1622.358,814.654,1558.001,931.222C1495.823,1043.844,1496.046,1181.069,1562.406,1291.279C1626.758,1398.154,1747.3,1449.918,1872.022,1452.745" fill="rgba(28, 83, 142, 0.4)" class="triangle-float3"></path><path d="M223.088,631.846C345.986,632.456,472.213,599.073,539.125,495.985C611.78,384.048,616.386,240.457,553.54,122.733C486.863,-2.168,364.642,-93.131,223.088,-96.024C76.796,-99.014,-63.349,-20.69,-131.62,108.73C-196.073,230.913,-165.091,378.54,-87.564,492.875C-19.329,593.507,101.504,631.243,223.088,631.846" fill="rgba(28, 83, 142, 0.4)" class="triangle-float1"></path><path d="M2268.394,1066.301C2357.829,1069.65,2434.562,1009.837,2480.513,933.036C2527.9,853.836,2547.586,755.944,2502.152,675.608C2456.127,594.227,2361.862,555.761,2268.394,557.965C2178.855,560.076,2094.126,606.646,2052.979,686.199C2014.614,760.373,2040.938,845.466,2082.112,918.118C2124.041,992.103,2183.414,1063.119,2268.394,1066.301" fill="rgba(28, 83, 142, 0.4)" class="triangle-float2"></path><path d="M2122.11,306.019C2207.697,307.898,2294.503,269.385,2333.493,193.172C2369.983,121.846,2331.542,42.714,2292.65,-27.331C2252.071,-100.414,2205.574,-182.882,2122.11,-187.526C2033.155,-192.475,1956.73,-127.151,1915.197,-48.331C1876.421,25.257,1884.274,112.399,1926.217,184.229C1967.772,255.394,2039.721,304.21,2122.11,306.019" fill="rgba(28, 83, 142, 0.4)" class="triangle-float2"></path><path d="M2587.368,1301.034C2724.059,1308.432,2853.997,1239.104,2926.729,1123.133C3004.384,999.313,3035.721,836.785,2954.9,715.008C2879.482,601.373,2723.674,607.15,2587.368,611.803C2462.296,616.073,2324.354,630.851,2260.876,738.702C2196.769,847.621,2242.723,980.248,2306.182,1089.546C2369.298,1198.253,2461.851,1294.24,2587.368,1301.034" fill="rgba(28, 83, 142, 0.4)" class="triangle-float2"></path><path d="M1648.348,1173.222C1691.826,1172.545,1719.737,1131.54,1739.886,1093.007C1758.21,1057.963,1767.462,1017.048,1748.014,982.615C1728.289,947.69,1688.454,930.394,1648.348,930.935C1609.222,931.463,1573.004,951.475,1553.232,985.242C1533.247,1019.373,1533.876,1060.647,1551.733,1095.938C1571.689,1135.379,1604.151,1173.911,1648.348,1173.222" fill="rgba(28, 83, 142, 0.4)" class="triangle-float2"></path><path d="M824.526,994.451C895.394,993.703,959.958,954.971,995.32,893.551C1030.606,832.263,1033.559,755.888,996.581,695.606C961.097,637.759,892.384,615.923,824.526,615.118C754.92,614.292,682.273,632.488,645.253,691.439C606.152,753.704,609.929,833.946,647.367,897.225C684.13,959.362,752.332,995.213,824.526,994.451" fill="rgba(28, 83, 142, 0.4)" class="triangle-float2"></path><path d="M479.51,1475.126C628.213,1467.229,717.638,1326.615,788.974,1195.901C856.275,1072.58,910.027,930.784,844.362,806.585C775.202,675.776,627.474,611.449,479.51,610.582C329.897,609.705,184.036,673.9,107.173,802.263C28.281,934.014,32.998,1097.733,107.351,1232.098C184.237,1371.042,320.935,1483.547,479.51,1475.126" fill="rgba(28, 83, 142, 0.4)" class="triangle-float3"></path><path d="M872.786,1536.482C1021.474,1541.013,1155.632,1450.292,1228.999,1320.886C1301.357,1193.26,1305.193,1034.898,1227.839,910.237C1154.214,791.586,1012.106,737.405,872.786,746.825C748.621,755.22,654.543,845.522,592.178,953.217C529.635,1061.218,498.188,1187.797,552.295,1300.262C613.962,1428.441,730.611,1532.149,872.786,1536.482" fill="rgba(28, 83, 142, 0.4)" class="triangle-float3"></path></g><defs><mask id="SvgjsMask1354"><rect width="2560" height="1440" fill="#ffffff"></rect></mask><linearGradient x1="10.94%" y1="-19.44%" x2="89.06%" y2="119.44%" gradientUnits="userSpaceOnUse" id="SvgjsLinearGradient1355"><stop stop-color="rgba(14, 28, 71, 1)" offset="0"></stop><stop stop-color="rgba(0, 89, 107, 1)" offset="1"></stop></linearGradient><style>
                @keyframes float1 {
                    0%{transform: translate(0, 0)}
                    50%{transform: translate(-10px, 0)}
                    100%{transform: translate(0, 0)}
                }

                .triangle-float1 {
                    animation: float1 5s infinite;
                }

                @keyframes float2 {
                    0%{transform: translate(0, 0)}
                    50%{transform: translate(-5px, -5px)}
                    100%{transform: translate(0, 0)}
                }

                .triangle-float2 {
                    animation: float2 4s infinite;
                }

                @keyframes float3 {
                    0%{transform: translate(0, 0)}
                    50%{transform: translate(0, -10px)}
                    100%{transform: translate(0, 0)}
                }

                .triangle-float3 {
                    animation: float3 6s infinite;
                }
            </style></defs></svg>